<svg width="21" height="20" viewBox="0 0 21 20" fill="none" xmlns="http://www.w3.org/2000/svg">
<path d="M4.25002 18.3333V14.1667M4.25002 5.83332V1.66666M2.16669 3.74999H6.33335M2.16669 16.25H6.33335M11.3334 2.49999L9.88821 6.25738C9.6532 6.8684 9.53569 7.17391 9.35296 7.43089C9.19101 7.65865 8.99202 7.85765 8.76426 8.0196C8.50728 8.20233 8.20176 8.31983 7.59074 8.55484L3.83335 9.99999L7.59074 11.4451C8.20176 11.6801 8.50728 11.7977 8.76426 11.9804C8.99202 12.1423 9.19101 12.3413 9.35296 12.5691C9.53569 12.8261 9.6532 13.1316 9.88821 13.7426L11.3334 17.5L12.7785 13.7426C13.0135 13.1316 13.131 12.8261 13.3137 12.5691C13.4757 12.3413 13.6747 12.1423 13.9025 11.9804C14.1594 11.7977 14.4649 11.6801 15.076 11.4451L18.8334 9.99999L15.076 8.55484C14.4649 8.31983 14.1594 8.20233 13.9024 8.0196C13.6747 7.85765 13.4757 7.65865 13.3137 7.43089C13.131 7.17391 13.0135 6.8684 12.7785 6.25737L11.3334 2.49999Z" stroke="#344054" stroke-width="1.66667" stroke-linecap="round" stroke-linejoin="round"/>
</svg>
